# xmcd
#
# Track frame offsets:
#	150
#	11271
#	23210
#	36764
#	50220
#	63365
#	76348
#	88456
#	101289
#	112624
#	126221
#	140587
#	150303
#	163339
#	174826
#
# Disc length: 2502
#
# Revision: 1
# Processed by: cddbd v1.5.2PL0 Copyright (c) Steve Scherf et al.
# Submitted via: kJams Pro (development) 1.0patch45.25
#
DISCID=b609c40f
DTITLE=Various Artist - CB 80086
DYEAR=1950
DGENRE=Country
TTITLE0=Eddy Arnold - Anytime
TTITLE1=Eddy Arnold - Bouquet Of Roses
TTITLE2=Eddy Arnold - Just A Little Lovin'
TTITLE3=Jimmy Wakely - One Has My Name, The Other Has My Heart
TTITLE4=Eddy Arnold - Texarkana Baby
TTITLE5=Eddy Arnold - A Heart Full Of Love
TTITLE6=George Morgan - Candy Kisses
TTITLE7=Eddy Arnold - Don't Rob Another Man's Castle
TTITLE8=Jimmy Wakely - I Love You So Much It Hurts
TTITLE9=Hank Williams - Lovesick Blues
TTITLE10=Tennessee Ernie Ford - Mule Train
TTITLE11=Margaret Whiting and Jimmy Wakely - Slipping Around
TTITLE12=Red Foley - Tennessee Saturday Night
TTITLE13=Eddy Arnold - One Kiss Too Many
TTITLE14=Eddy Arnold - I'm Throwing Rice (At The Girl That I Love)
EXTD=
EXTT0=
EXTT1=
EXTT2=
EXTT3=
EXTT4=
EXTT5=
EXTT6=
EXTT7=
EXTT8=
EXTT9=
EXTT10=
EXTT11=
EXTT12=
EXTT13=
EXTT14=
PLAYORDER=
